<?xml version="1.0" encoding="UTF-8"?>
<svg width="18px" height="20px" viewBox="0 0 18 20" version="1.1" xmlns="http://www.w3.org/2000/svg" xmlns:xlink="http://www.w3.org/1999/xlink">
    <!-- Generator: Sketch 64 (93537) - https://sketch.com -->
    <title>BulletPoint</title>
    <desc>Created with Sketch.</desc>
    <defs>
        <linearGradient x1="50%" y1="0%" x2="50%" y2="100%" id="linearGradient-1">
            <stop stop-color="#FFE031" offset="0%"></stop>
            <stop stop-color="#FF8718" offset="100%"></stop>
        </linearGradient>
    </defs>
    <g id="Web" stroke="none" stroke-width="1" fill="none" fill-rule="evenodd">
        <g id="RB_HomePage_1" transform="translate(-749.000000, -1235.000000)">
            <g id="BulletPoint" transform="translate(749.000000, 1235.000000)">
                <path d="M8.75473684,0.614035088 C6.27807018,2.96526316 0.567216176,1.89754386 0.567216176,1.89754386 L0.567216176,10.2282456 C0.56122807,11.214386 0.740877193,12.1922807 1.09719298,13.1119298 C3.15438596,18.31 8.75473684,19.3517544 8.75473684,19.3517544 C8.75473684,19.3517544 14.354386,18.31 16.4117544,13.1119298 C16.7680702,12.1922807 16.9477193,11.214386 16.9415644,10.2282456 L16.9415644,1.89684211 C16.9415644,1.89684211 11.2308772,2.9645614 8.75473684,0.614035088 Z" id="Fill-12" fill="url(#linearGradient-1)"></path>
                <path d="M8.75473684,0.614035088 C8.3545614,0.983333333 7.89263158,1.27736842 7.38894737,1.48368421 L0.567341205,8.3045614 L0.567341205,10.2282456 C0.565438596,10.9738596 0.666140351,11.7152632 0.868245614,12.432807 L11.4150877,1.88596491 C10.4050877,1.66666667 9.45175439,1.2754386 8.75473684,0.614035088 Z" id="Fill-13" fill="#FFEDD2" opacity="0.6"></path>
                <path d="M1.82491228,14.5703509 C2.11964912,15.0514035 2.45614035,15.5050877 2.83175439,15.9264912 L16.1526316,2.65070175 L16.1526316,2.01070175 C15.7121053,2.06350877 15.1164912,2.11684211 14.4435088,2.13333333 L1.82491228,14.5703509 Z" id="Fill-14" fill="#FFEDD2" opacity="0.6"></path>
                <path d="M16.4117544,13.1119298 C16.7680702,12.1922807 16.9477193,11.214386 16.9414035,10.2282456 L16.9414035,1.89684211 C16.9414035,1.89684211 11.2308772,2.9645614 8.75473684,0.613333333 L8.75473684,19.3517544 C8.75473684,19.3517544 14.3550877,18.31 16.4117544,13.1119298 Z" id="Fill-15" fill="#FCA742" opacity="0.632579985" style="mix-blend-mode: overlay;"></path>
                <path d="M0.567368421,6.36245614 L4.85403509,2.07578947 C4.51614035,2.10877193 4.18105263,2.12649123 3.85561404,2.13473684 L0.567368421,5.42210526 L0.567368421,6.36245614 Z" id="Fill-16" fill-opacity="0.6" fill="#FFEDD2"></path>
                <path d="M17.2778947,1.49192982 C17.1573684,1.39192982 16.9984211,1.35070175 16.8449123,1.37947368 C16.7907018,1.38982456 11.3719298,2.37315789 9.11666667,0.231578947 C9.10701754,0.222105263 9.0954386,0.215789474 9.08508772,0.207017544 C9.07140351,0.195964912 9.0577193,0.184385965 9.04333333,0.174736842 C9.02894737,0.165087719 9.01315789,0.157017544 8.99736842,0.14877193 C8.98157895,0.139824561 8.96789474,0.132982456 8.95280702,0.126140351 C8.93578947,0.12 8.91929825,0.114385965 8.90210526,0.109649123 C8.88631579,0.105614035 8.87122807,0.100701754 8.85561404,0.0973684211 C8.83982456,0.0945614035 8.82052632,0.0924561404 8.80280702,0.0912280702 C8.78491228,0.0898245614 8.77122807,0.0877192982 8.75473684,0.0877192982 C8.73894737,0.0877192982 8.72052632,0.0898245614 8.70263158,0.0912280702 C8.68561404,0.0931578947 8.67052632,0.0938596491 8.65473684,0.0973684211 C8.63754386,0.100701754 8.62122807,0.105614035 8.60473684,0.110350877 C8.58824561,0.115087719 8.57245614,0.119298246 8.55736842,0.126140351 C8.54105263,0.132982456 8.52526316,0.140526316 8.51017544,0.149473684 C8.49508772,0.157017544 8.48,0.164561404 8.46561404,0.174035088 C8.45122807,0.184385965 8.43684211,0.195263158 8.42315789,0.207017544 C8.41280702,0.215263158 8.40192982,0.222105263 8.3922807,0.230877193 C6.14105263,2.36842105 0.718245614,1.38912281 0.664035088,1.37877193 C0.34,1.31859649 0.0410526316,1.56666667 0.0410526316,1.89631579 L0.0410526316,10.2282456 C0.0342105263,11.2801754 0.226140351,12.3245614 0.607894737,13.3052632 C2.74736842,18.7122807 8.41754386,19.8245614 8.65824561,19.8691228 L8.65947368,19.8691228 C8.69035088,19.8752632 8.72192982,19.8780702 8.75403509,19.8780702 L8.75473684,19.8780702 C8.78701754,19.8780702 8.81859649,19.8752632 8.84929825,19.8691228 L8.85070175,19.8691228 C9.09052632,19.8245614 14.7615789,18.7122807 16.9010526,13.3052632 C17.282807,12.3245614 17.4745614,11.2801754 17.4677193,10.2282456 L17.4677193,1.89684211 C17.4677193,1.74070175 17.3978947,1.59192982 17.2778947,1.49192982 Z M16.4150877,10.2282456 C16.4219298,11.1478947 16.2547368,12.0607018 15.9224561,12.9180702 C14.1440351,17.4115789 9.48122807,18.6464912 8.75403509,18.8136842 C8.02491228,18.6478947 3.37035088,17.4245614 1.58719298,12.9180702 C1.25403509,12.0607018 1.08684211,11.1478947 1.09368421,10.2282456 L1.09368421,2.51035088 C2.61245614,2.70964912 6.50842105,3.01333333 8.75473684,1.30070175 C11.0005263,3.01333333 14.8964912,2.70964912 16.4150877,2.51035088 L16.4150877,10.2282456 Z" id="Fill-23" fill="#FD8700"></path>
            </g>
        </g>
    </g>
</svg>