<?xml version="1.0" encoding="UTF-8"?>
<svg width="640px" height="266px" viewBox="0 0 640 266" version="1.1" xmlns="http://www.w3.org/2000/svg" xmlns:xlink="http://www.w3.org/1999/xlink">
    <!-- Generator: Sketch 64 (93537) - https://sketch.com -->
    <title>POSP</title>
    <desc>Created with Sketch.</desc>
    <defs>
        <linearGradient x1="50%" y1="0%" x2="50%" y2="100%" id="linearGradient-1">
            <stop stop-color="#FFE031" offset="0%"></stop>
            <stop stop-color="#FF8718" offset="100%"></stop>
        </linearGradient>
        <linearGradient x1="50%" y1="0%" x2="50%" y2="100%" id="linearGradient-2">
            <stop stop-color="#FFE031" offset="0%"></stop>
            <stop stop-color="#FF8718" offset="100%"></stop>
        </linearGradient>
        <linearGradient x1="50%" y1="0%" x2="50%" y2="100%" id="linearGradient-3">
            <stop stop-color="#FFE031" offset="0%"></stop>
            <stop stop-color="#FF8718" offset="100%"></stop>
        </linearGradient>
    </defs>
    <g id="Web" stroke="none" stroke-width="1" fill="none" fill-rule="evenodd">
        <g id="RB_HomePage_1" transform="translate(-698.000000, -5107.000000)">
            <g id="POSP" transform="translate(698.000000, 5107.000000)">
                <path d="M119.740246,204.332879 L133.27367,251.018827 L135.45648,251.018827 L134.01146,244.933151 L134.01146,244.933151 L133.574898,245.033561 L132.151705,238.799454 L132.588267,238.699045 L130.488404,229.845566 L130.051842,229.945975 L124.118963,204.965894 L124.555525,204.865484 L124.555525,204.865484 L123.787176,201.691678 C122.503746,202.662131 121.151174,203.537582 119.740246,204.31105 L119.740246,204.332879 Z" id="Path" fill="#E9E6FF" fill-rule="nonzero"></path>
                <path d="M72.6613915,251.023192 L74.86603,251.023192 L78.4633015,238.624829 L78.0267394,238.502592 L84.4791269,216.272851 L84.9156889,216.395089 L88.4081855,204.280491 C86.9939546,203.507901 85.6384163,202.632419 84.3525239,201.661119 L72.6613915,251.023192 Z" id="Path" fill="#E9E6FF" fill-rule="nonzero"></path>
                <polygon id="Path" fill="#6B92F7" fill-rule="nonzero" points="120.940791 164.461664 127.956344 164.461664 128.213915 158.987176 121.386085 155.35498"></polygon>
                <path d="M127.834106,167.081037 L120.814188,167.081037 L119.993452,183.731514 L119.993452,183.731514 C119.993452,183.858117 119.993452,183.98472 119.993452,184.111323 C119.993838,184.640547 119.967611,185.169455 119.91487,185.696044 L119.792633,188.158254 L131.208731,192.222647 C132.152351,190.69285 132.965763,189.086472 133.640382,187.420464 L134.037653,187.577626 C136.661812,181.064563 137.092459,173.873837 135.264393,167.094134 L127.834106,167.081037 Z" id="Path" fill="#6B92F7" fill-rule="nonzero"></path>
                <path d="M104.076398,207.367178 C106.20344,207.366285 108.325224,207.155715 110.410914,206.738336 L109.88704,196.016371 L94.4065484,196.016371 C94.2886767,196.016371 94.1708049,196.016371 94.0529332,196.016371 C93.9350614,196.016371 93.9001364,196.016371 93.8259209,196.016371 C92.2419368,195.858641 90.787338,195.072371 89.7877217,193.833561 L89.7877217,193.833561 L82.4272851,184.805457 L82.4272851,184.805457 C81.0302301,183.082918 80.9227489,180.649758 82.1624776,178.810744 C83.4022063,176.971729 85.6980298,176.158701 87.8188267,176.80764 L87.3429741,167.098499 L72.8927694,167.098499 C72.6686676,167.919236 72.4794907,168.75307 72.3252387,169.6 L72.7618008,169.678581 C71.3796083,177.086561 72.6631781,184.744679 76.385266,191.297135 L76.0141883,191.51105 C76.7450433,192.787424 77.5618431,194.012624 78.4589359,195.178172 L78.7994543,194.916235 C84.8120759,202.793819 94.1664656,207.401543 104.076398,207.367178 L104.076398,207.367178 Z" id="Path" fill="#6B92F7" fill-rule="nonzero"></path>
                <path d="M119.740246,203.276398 C121.950497,202.033238 124.002626,200.527855 125.852115,198.792906 L119.740246,196.950614 L119.740246,203.276398 Z" id="Path" fill="#6B92F7" fill-rule="nonzero"></path>
                <path d="M87.8188267,176.80764 C87.8930423,176.80764 87.9628922,176.84693 88.0327422,176.873124 L88.0327422,176.873124 L107.381173,183.731514 L120.010914,183.731514 L120.831651,167.081037 L108.607913,167.081037 L108.607913,167.081037 L102.932606,167.081037 L102.932606,161.436289 L104.578445,161.759345 L109.81719,160.227012 C111.02543,159.871051 112.331737,160.193264 113.235856,161.07026 C114.139976,161.947255 114.501816,163.243146 114.18281,164.461664 L120.962619,164.461664 L121.399181,155.35498 L128.227012,158.987176 L128.523874,152.595907 L128.087312,152.574079 L128.59809,141.603274 L121.407913,135.770805 L121.407913,135.770805 C120.969275,135.411898 120.497059,135.096112 119.997817,134.827831 C118.937851,134.264095 117.77236,133.926637 116.575171,133.836835 C116.39618,133.836835 116.212824,133.806276 116.029468,133.806276 L110.196999,133.806276 L110.196999,134.1206 L110.196999,134.1206 C110.1102,137.134432 107.596643,139.507262 104.58281,139.420464 C101.568978,139.333665 99.1961484,136.820108 99.2829468,133.806276 L92.13206,133.806276 C91.8956826,133.807501 91.6595631,133.822076 91.4248295,133.849932 C89.3618621,134.049226 87.4376879,134.978031 85.9983629,136.469304 L85.9983629,136.469304 L66.0431105,156.987722 L66.0431105,156.987722 C64.5201351,158.553789 63.9777319,160.828451 64.6301424,162.913249 C65.2825529,164.998047 67.0248667,166.557736 69.168895,166.976262 C69.5473186,167.048752 69.9317492,167.085295 70.3170532,167.085402 L87.3429741,167.085402 L87.8188267,176.80764 Z M102.823465,161.890314 L80.6242838,157.524693 L80.7901774,156.651569 L102.993724,161.01719 L102.823465,161.890314 Z" id="Shape" fill="#CCC2FF" fill-rule="nonzero"></path>
                <path d="M131.213097,192.222647 L119.796999,188.158254 L119.919236,185.696044 C119.971977,185.169455 119.998204,184.640547 119.997817,184.111323 C119.997817,183.98472 119.997817,183.858117 119.997817,183.731514 L107.381173,183.731514 L88.0327422,176.851296 L88.0327422,176.851296 C87.9628922,176.825102 87.8930423,176.80764 87.8188267,176.785812 C85.6940402,176.1316 83.3915216,176.946211 82.1508863,178.791078 C80.910251,180.635944 81.0243074,183.075652 82.4316508,184.796726 L82.4316508,184.796726 L89.7877217,193.833561 L89.7877217,193.833561 C90.787338,195.072371 92.2419368,195.858641 93.8259209,196.016371 C93.9001364,196.016371 93.9787176,196.016371 94.0529332,196.016371 C94.1271487,196.016371 94.2886767,196.016371 94.4065484,196.016371 L109.88704,196.016371 L110.410914,206.720873 C108.325807,207.144116 106.204018,207.360536 104.076398,207.366985 C94.1718267,207.398477 84.8232899,202.792865 78.8125512,194.9206 L78.4720327,195.182538 L78.1184175,195.453206 C80.8999409,199.084883 84.4129015,202.092168 88.4300136,204.280491 C93.2310482,206.891198 98.611459,208.252814 104.076398,208.240109 C106.211802,208.237542 108.341953,208.028474 110.437108,207.615825 L112.353615,246.600819 C112.353615,246.600819 112.353615,246.635744 112.353615,246.653206 L119.727149,246.653206 L119.727149,204.276126 C121.138077,203.502657 122.490649,202.627206 123.774079,201.656753 C124.836397,200.8571 125.848242,199.992512 126.80382,199.06794 L137.866303,202.403274 L137.914325,202.425102 L137.914325,202.425102 L140.385266,195.483765 L140.385266,195.483765 L132.055662,192.523874 C132.985386,190.991162 133.788417,189.385099 134.456753,187.721692 L134.042019,187.551432 L133.644748,187.39427 C132.971464,189.069266 132.158027,190.684456 131.213097,192.222647 Z M125.85648,198.792906 C124.006991,200.527855 121.954862,202.033238 119.744611,203.276398 L119.744611,196.950614 L125.85648,198.792906 Z M93.9219645,189.625102 L94.1751705,188.791269 L109.524693,193.396999 L109.275853,194.230832 L93.9219645,189.625102 Z" id="Shape" fill="#061D78" fill-rule="nonzero"></path>
                <path d="M72.207367,175.497954 C72.2082709,173.540051 72.388008,171.586323 72.7443383,169.661119 L72.3077763,169.582538 L71.8712142,169.499591 C71.5105881,171.47861 71.3308561,173.486348 71.3341959,175.497954 C71.3321405,181.193573 72.8158197,186.791227 75.6387449,191.738063 L76.0272851,191.515416 L76.3983629,191.301501 C73.6508557,186.487732 72.2063182,181.040622 72.207367,175.497954 L72.207367,175.497954 Z" id="Path" fill="#40327A" fill-rule="nonzero"></path>
                <path d="M112.371078,246.657572 L112.371078,246.657572 L112.371078,251.023192 L123.446658,251.023192 C123.946282,251.021536 124.381522,250.682123 124.504875,250.197962 C124.628228,249.713802 124.408455,249.207507 123.970532,248.966985 L119.740246,246.657572 L112.371078,246.657572 Z" id="Path" fill="#FF95A9" fill-rule="nonzero"></path>
                <path d="M137.940518,202.44693 L138.695771,207.205457 C138.775268,207.698855 139.178533,208.075953 139.676148,208.122218 C140.173762,208.168484 140.639636,207.872195 140.808731,207.40191 L144.523874,196.963711 L140.41146,195.501228 L137.940518,202.442565 L137.940518,202.44693 Z" id="Path" fill="#FF95A9" fill-rule="nonzero"></path>
                <rect id="Rectangle" fill="#7760DB" fill-rule="nonzero" transform="translate(101.731919, 191.540611) rotate(-73.210000) translate(-101.731919, -191.540611) " x="101.295357" y="183.523148" width="1" height="16.034925"></rect>
                <path d="M104.416917,139.263302 C107.424383,139.437131 110.003806,137.141053 110.179536,134.133697 L110.179536,134.133697 L110.179536,133.819372 L110.358527,130.737244 L110.122783,130.737244 C108.444195,130.873522 106.780314,130.33669 105.497892,129.245075 C104.21547,128.153461 103.419785,126.596678 103.286221,124.917872 L102.688131,117.496317 L102.688131,117.496317 L102.635744,116.845839 C102.530357,115.536312 101.383538,114.560041 100.073981,114.665045 C98.7644235,114.77005 97.7878176,115.916585 97.8924409,117.226173 C97.9970642,118.535761 99.143315,119.5127 100.452933,119.408458 L100.452933,119.408458 L100.889495,125.027012 L100.496589,125.057572 C100.244064,125.083836 99.9894963,125.083836 99.7369714,125.057572 L99.2480218,133.48322 L99.2480218,133.48322 C99.2480218,133.587995 99.2480218,133.692769 99.2480218,133.797544 C99.2348676,136.707479 101.510779,139.114102 104.416917,139.263302 L104.416917,139.263302 Z" id="Path" fill="#FF95A9" fill-rule="nonzero"></path>
                <path d="M114.160982,164.461664 C113.763082,166.002727 112.373594,167.07985 110.781992,167.081037 L108.572988,167.081037 L108.572988,167.081037 L127.834106,167.081037 L127.956344,164.461664 L114.160982,164.461664 L114.160982,164.461664 Z" id="Path" fill="#40327A" fill-rule="nonzero"></path>
                <path d="M129.209277,137.176535 L129.209277,137.176535 L129.645839,137.176535 L128.929877,152.600273 L128.493315,152.600273 L128.196453,158.991542 L127.938881,164.46603 L127.816644,167.085402 L127.816644,167.085402 L170.032196,160.506412 L171.119236,137.176535 L129.209277,137.176535 Z M149.326057,155.18472 C148.52616,155.192083 147.758988,154.867579 147.207166,154.288456 C146.655345,153.709333 146.368237,152.927396 146.414188,152.128786 C146.506261,150.426542 147.905165,149.088793 149.609823,149.072851 C150.410475,149.064271 151.178805,149.388242 151.731589,149.967507 C152.284374,150.546772 152.572065,151.32941 152.526057,152.128786 C152.432239,153.825088 151.042232,155.1598 149.34352,155.18472 L149.326057,155.18472 Z" id="Shape" fill="#FFFFFF" fill-rule="nonzero"></path>
                <path d="M149.627285,149.072851 C147.922627,149.088793 146.523724,150.426542 146.431651,152.128786 C146.385699,152.927396 146.672807,153.709333 147.224629,154.288456 C147.77645,154.867579 148.543622,155.192083 149.34352,155.18472 C151.048993,155.168916 152.449224,153.831723 152.54352,152.128786 C152.589527,151.32941 152.301836,150.546772 151.749052,149.967507 C151.196268,149.388242 150.427938,149.064271 149.627285,149.072851 L149.627285,149.072851 Z" id="Path" fill="#DDD6FF" fill-rule="nonzero"></path>
                <polygon id="Path" fill="#DDD6FF" fill-rule="nonzero" points="127.838472 167.081037 135.268759 167.081037 169.748431 167.081037 170.054025 160.502046"></polygon>
                <path d="M100.531514,125.083765 L100.92442,125.053206 L100.487858,119.434652 L100.487858,119.434652 C99.17824,119.538894 98.0319892,118.561954 97.9273659,117.252367 C97.8227426,115.942779 98.7993484,114.796244 100.108906,114.691239 C101.418463,114.586234 102.565282,115.562506 102.670668,116.872033 L102.723056,117.52251 L102.723056,117.52251 L103.321146,124.944065 C103.45471,126.622871 104.250395,128.179654 105.532817,129.271269 C106.815239,130.362884 108.47912,130.899716 110.157708,130.763438 L110.393452,130.763438 L116.444202,130.274488 C117.31095,130.20529 118.111352,129.783521 118.658443,129.107702 C119.205534,128.431883 119.4514,127.561204 119.338608,126.699045 L118.334516,118.954434 L118.334516,118.954434 L107.944338,119.792633 C106.505359,119.906474 105.240741,118.845827 105.102319,117.409004 L104.325239,107.896317 C105.690879,109.172284 107.530756,109.814102 109.393724,109.664393 L116.701774,109.075034 C117.029232,109.827566 117.248242,110.622761 117.352251,111.436835 L117.618554,113.466849 C119.679073,112.92668 121.222536,111.215179 121.54765,109.10999 C121.872765,107.004802 120.917527,104.907415 119.115962,103.770805 C118.815529,101.795909 117.314647,100.218326 115.357162,99.8199181 C115.006133,99.7249189 114.641388,99.6909548 114.278854,99.7195089 L114.034379,99.7195089 L114.034379,99.7195089 L110.192633,100.029468 L110.192633,100.029468 L109.799727,100.060027 C108.987763,100.126694 108.232653,100.503467 107.691132,101.112142 C106.857873,100.216658 105.584168,99.8797206 104.417116,100.246056 C103.250064,100.612391 102.397401,101.61679 102.225375,102.827831 C98.0726259,103.419024 95.0990542,107.142686 95.4412005,111.323329 L96.0043656,118.308322 L96.0043656,118.308322 L96.2575716,121.451569 C96.4108787,123.344794 97.8842434,124.863915 99.7718963,125.075034 C100.024119,125.104203 100.278688,125.107129 100.531514,125.083765 L100.531514,125.083765 Z M117.256207,121.154707 C117.337611,122.451697 116.372358,123.578065 115.0782,123.696253 C113.784043,123.814441 112.630729,122.88155 112.475853,121.591269 L117.256207,121.154707 Z" id="Shape" fill="#2F2F2F" fill-rule="nonzero"></path>
                <path d="M117.347885,111.436835 C117.243876,110.622761 117.024867,109.827566 116.697408,109.075034 L109.389359,109.664393 C107.527863,109.812846 105.689823,109.171116 104.325239,107.896317 L105.089222,117.374079 C105.227645,118.810902 106.492262,119.871549 107.931241,119.757708 L118.321419,118.919509 L117.618554,113.466849 L117.347885,111.436835 Z" id="Path" fill="#FF95A9" fill-rule="nonzero"></path>
                <path d="M110.781992,167.06794 C112.373594,167.066753 113.763082,165.989631 114.160982,164.448568 C114.479988,163.230049 114.118147,161.934158 113.214028,161.057163 C112.309909,160.180167 111.003602,159.857954 109.795362,160.213915 L104.556617,161.746248 L102.910778,161.423192 L102.910778,167.072306 L110.768895,167.072306 L110.781992,167.06794 Z" id="Path" fill="#FF95A9" fill-rule="nonzero"></path>
                <rect id="Rectangle" fill="#A695FF" fill-rule="nonzero" opacity="0.0872860863" style="mix-blend-mode: multiply;" transform="translate(91.805982, 159.255536) rotate(-78.910000) translate(-91.805982, -159.255536) " x="91.3694198" y="147.944213" width="1" height="22.6226467"></rect>
                <path d="M115.077763,123.765348 C115.716078,123.71116 116.306135,123.40369 116.716244,122.911558 C117.126353,122.419427 117.322379,121.783598 117.260573,121.145975 L112.480218,121.582538 C112.534589,122.216705 112.838981,122.8032 113.326267,123.212684 C113.813553,123.622167 114.443707,123.821005 115.077763,123.765348 L115.077763,123.765348 Z" id="Path" fill="#FFFFFF" fill-rule="nonzero"></path>
                <polygon id="Path" fill="#FFFFFF" fill-rule="nonzero" points="128.510778 152.595907 128.94734 152.617735 129.663302 137.193997 129.226739 137.176535 128.794543 137.154707 128.584993 141.603274 128.074216 152.574079"></polygon>
                <polygon id="Path" fill="#C4B8FF" fill-rule="nonzero" points="124.118963 204.965894 130.051842 229.963438 130.475307 229.863029 130.475307 229.863029 130.898772 229.762619 124.965894 204.765075 124.542428 204.865484 124.542428 204.865484"></polygon>
                <polygon id="Path" fill="#C4B8FF" fill-rule="nonzero" points="133.627285 245.033561 134.05075 244.933151 134.05075 244.933151 134.474216 244.832742 132.998636 238.616098 132.575171 238.716508 132.575171 238.716508 132.151705 238.816917"></polygon>
                <polygon id="Path" fill="#DDD6FF" fill-rule="nonzero" points="78.0442019 238.498226 78.4633015 238.620464 78.4633015 238.620464 78.8824011 238.742701 85.3347885 216.51296 84.9156889 216.390723 84.4965894 216.268486"></polygon>
                <polygon id="Path" fill="#001360" fill-rule="nonzero" points="55.9236016 167.45648 55.4652115 171.822101 46.7819918 251.018827 44.5773533 251.018827 51.0952251 167.45648"></polygon>
                <polygon id="Path" fill="#001360" fill-rule="nonzero" points="436.592633 167.45648 437.051023 171.822101 445.734243 251.018827 447.938881 251.018827 441.42101 167.45648"></polygon>
                <path d="M441.617462,169.975443 L445.109959,214.561528 L441.617462,169.975443 Z" id="Path" fill="#DDD6FF" fill-rule="nonzero"></path>
                <rect id="Rectangle" fill="#061D78" fill-rule="nonzero" transform="translate(443.353960, 192.270671) rotate(-4.460000) translate(-443.353960, -192.270671) " x="442.917398" y="169.912144" width="1" height="44.7170532"></rect>
                <path d="M445.921965,225.156889 L446.301774,230.055116 L445.921965,225.156889 Z" id="Path" fill="#DDD6FF" fill-rule="nonzero"></path>
                <rect id="Rectangle" fill="#061D78" fill-rule="nonzero" transform="translate(446.119923, 227.598763) rotate(-4.460000) translate(-446.119923, -227.598763) " x="445.683361" y="225.143101" width="1" height="4.91132333"></rect>
                <circle id="Oval" fill="#40327A" fill-rule="nonzero" transform="translate(151.760252, 42.584586) rotate(-76.720000) translate(-151.760252, -42.584586) " cx="151.760252" cy="42.5845864" r="4.99427012"></circle>
                <rect id="Rectangle" fill="#B3A4F5" fill-rule="nonzero" x="99.9290587" y="34.7197817" width="52.4485675" height="15.7336971"></rect>
                <polygon id="Path" fill="#CCC2FF" fill-rule="nonzero" points="307.461937 98.1740791 306.588813 98.1740791 306.588813 7.98472033 463.113779 7.98472033 463.113779 8.85784447 307.461937 8.85784447"></polygon>
                <rect id="Rectangle" fill="#4154A4" fill-rule="nonzero" x="6.06329801e-14" y="251.018827" width="639.777353" height="1"></rect>
                <rect id="Rectangle" fill="#C4B8FF" fill-rule="nonzero" opacity="0.15" x="302.153342" y="257.571623" width="229.426467" height="1"></rect>
                <rect id="Rectangle" fill="#C4B8FF" fill-rule="nonzero" opacity="0.15" x="123.979263" y="257.571623" width="105.224557" height="1"></rect>
                <rect id="Rectangle" fill="#C4B8FF" fill-rule="nonzero" opacity="0.15" x="457.613097" y="264.224829" width="109.406821" height="1"></rect>
                <rect id="Rectangle" fill="#C4B8FF" fill-rule="nonzero" opacity="0.15" x="394.150068" y="264.224829" width="41.3598909" height="1"></rect>
                <rect id="Rectangle" fill="#C4B8FF" fill-rule="nonzero" opacity="0.15" x="92.6515689" y="264.224829" width="253.384993" height="1"></rect>
                <rect id="Rectangle" fill="#C4B8FF" fill-rule="nonzero" opacity="0.15" x="557.804093" y="257.672033" width="46.0572988" height="1"></rect>
                <rect id="Rectangle" fill="#C4B8FF" fill-rule="nonzero" opacity="0.15" x="23.7184175" y="257.571623" width="85.6229195" height="1"></rect>
                <rect id="Rectangle" fill="#4154A4" fill-rule="nonzero" x="84.6450205" y="251.018827" width="73.2682128" height="1"></rect>
                <rect id="Rectangle" fill="#5464B3" fill-rule="nonzero" x="161.842292" y="251.018827" width="5.56616644" height="1"></rect>
                <rect id="Rectangle" fill="#5464B3" fill-rule="nonzero" x="215.443383" y="251.018827" width="69.7276944" height="1"></rect>
                <rect id="Rectangle" fill="#5464B3" fill-rule="nonzero" x="326.714325" y="251.018827" width="77.5290587" height="1"></rect>
                <rect id="Rectangle" fill="#5464B3" fill-rule="nonzero" x="317.306412" y="251.018827" width="3.95088677" height="1"></rect>
                <rect id="Rectangle" fill="#5464B3" fill-rule="nonzero" x="417.558527" y="251.018827" width="35.9072306" height="1"></rect>
                <rect id="Rectangle" fill="#5464B3" fill-rule="nonzero" x="457.613097" y="251.018827" width="7.42155525" height="1"></rect>
                <rect id="Rectangle" fill="#5464B3" fill-rule="nonzero" x="493.708049" y="251.018827" width="32.9866303" height="1"></rect>
                <rect id="Rectangle" fill="#5464B3" fill-rule="nonzero" x="202.106412" y="251.018827" width="6.21664393" height="1"></rect>
                <rect id="Rectangle" fill="#FFFFFF" fill-rule="nonzero" x="308.771623" y="10.1675307" width="209.79427" height="140.73015"></rect>
                <polygon id="Path" fill="#FFFFFF" fill-rule="nonzero" points="518.565894 86.9762619 518.565894 150.78854 307.256753 150.78854 307.256753 119.893042"></polygon>
                <polygon id="Path" fill="#E9E6FF" fill-rule="nonzero" opacity="0.5" points="518.565894 117.976535 518.565894 150.897681 307.256753 150.897681"></polygon>
                <path d="M359.993452,27.5296044 L359.993452,55.6049113 L335.676944,69.640382 C330.662661,60.9535876 330.663507,50.251597 335.679164,41.5655956 C340.694821,32.8795942 349.963325,27.5291334 359.993452,27.5296044 L359.993452,27.5296044 Z" id="Path" fill="url(#linearGradient-1)"></path>
                <path d="M384.309959,69.640382 C379.291927,78.3247515 370.023353,83.6737738 359.993452,83.6737738 C349.96355,83.6737738 340.694976,78.3247515 335.676944,69.640382 L359.993452,55.6049113 L384.309959,69.640382 Z" id="Path" fill="#B3A4F5" fill-rule="nonzero"></path>
                <path d="M388.090632,55.6049113 C388.099461,60.5332935 386.802533,65.3760599 384.331787,69.640382 L360.01528,55.6049113 L360.01528,27.529603 C367.462024,27.5272874 374.604435,30.484469 379.870078,35.7501127 C385.135722,41.0157564 388.092904,48.1581669 388.090632,55.6049113 L388.090632,55.6049113 Z" id="Path" fill="#CCC2FF" fill-rule="nonzero"></path>
                <rect id="Rectangle" fill="#40327A" fill-rule="nonzero" opacity="0.2" x="403.540518" y="33.4188267" width="42.957708" height="1"></rect>
                <rect id="Rectangle" fill="#40327A" fill-rule="nonzero" opacity="0.2" x="403.540518" y="37.1034106" width="42.957708" height="1"></rect>
                <rect id="Rectangle" fill="#40327A" fill-rule="nonzero" opacity="0.2" x="403.540518" y="40.7836289" width="33.174352" height="1"></rect>
                <rect id="Rectangle" fill="#40327A" fill-rule="nonzero" opacity="0.2" x="403.540518" y="44.4638472" width="20.247749" height="1"></rect>
                <rect id="Rectangle" fill="#40327A" fill-rule="nonzero" opacity="0.2" x="403.540518" y="48.1484311" width="20.247749" height="1"></rect>
                <rect id="Rectangle" fill="#40327A" fill-rule="nonzero" opacity="0.2" x="461.28895" y="65.7811733" width="30.1446112" height="1"></rect>
                <rect id="Rectangle" fill="#40327A" fill-rule="nonzero" opacity="0.2" x="461.28895" y="69.4613915" width="24.4649386" height="1"></rect>
                <rect id="Rectangle" fill="#40327A" fill-rule="nonzero" opacity="0.2" x="461.28895" y="73.1459754" width="30.1446112" height="1"></rect>
                <rect id="Rectangle" fill="#40327A" fill-rule="nonzero" opacity="0.2" x="461.28895" y="76.8261937" width="20.2521146" height="1"></rect>
                <rect id="Rectangle" fill="#40327A" fill-rule="nonzero" opacity="0.2" x="461.28895" y="80.506412" width="20.2521146" height="1"></rect>
                <rect id="Rectangle" fill="url(#linearGradient-2)" x="403.540518" y="66.2177353" width="42.6914052" height="9.979809"></rect>
                <rect id="Rectangle" fill="#B3A4F5" fill-rule="nonzero" x="403.540518" y="81.7418827" width="42.6914052" height="9.979809"></rect>
                <rect id="Rectangle" fill="#CCC2FF" fill-rule="nonzero" x="403.540518" y="97.26603" width="42.6914052" height="9.979809"></rect>
                <polygon id="Path" fill="#FFFFFF" fill-rule="nonzero" points="335.895225 70.0158254 335.458663 69.260573 359.556889 55.3517053 359.556889 27.4510232 360.430014 27.4510232 360.430014 55.8537517"></polygon>
                <rect id="Rectangle" fill="#FFFFFF" fill-rule="nonzero" transform="translate(372.167985, 62.640293) rotate(-60.000000) translate(-372.167985, -62.640293) " x="371.731423" y="48.6026392" width="1" height="28.075307"></rect>
                <rect id="Rectangle" fill="#5464B3" fill-rule="nonzero" x="506.756889" y="251.018827" width="49.842292" height="1"></rect>
                <rect id="Rectangle" fill="#5464B3" fill-rule="nonzero" x="560.109141" y="251.018827" width="4.01200546" height="1"></rect>
                <rect id="Rectangle" fill="#7760DB" fill-rule="nonzero" x="46.3934516" y="167.081037" width="398.956617" height="4.36562074"></rect>
                <rect id="Rectangle" fill="#40327A" fill-rule="nonzero" x="46.3934516" y="171.010095" width="101.221282" height="1"></rect>
                <rect id="Rectangle" fill="#40327A" fill-rule="nonzero" x="154.743793" y="171.010095" width="6.6313779" height="1"></rect>
                <rect id="Rectangle" fill="#40327A" fill-rule="nonzero" x="167.910505" y="171.010095" width="26.4207367" height="1"></rect>
                <path d="M414.978445,216.705048 C411.941501,216.709864 409.482128,219.173148 409.482128,222.210095 L420.487858,222.210095 C420.485448,219.169036 418.019506,216.705048 414.978445,216.705048 Z" id="Path"></path>
                <path d="M383.384447,153.486494 L383.384447,153.486494 L386.772169,156.97899 L386.772169,156.97899 C387.577089,157.804224 388.123346,158.846664 388.343793,159.978172 C388.343793,160.052387 388.365621,160.126603 388.378718,160.205184 L402.859482,157.948158 L402.859482,157.948158 L403.828649,137.176535 L367.537244,137.176535 L383.384447,153.486494 Z M377.486494,141.481037 L389.858663,141.481037 L389.858663,142.354161 L377.486494,142.354161 L377.486494,141.481037 Z M380.542428,145.047749 L380.542428,144.174625 L394.150068,144.174625 L394.150068,145.047749 L380.542428,145.047749 Z M389.858663,150.430559 L386.366166,150.430559 L386.366166,149.557435 L389.858663,149.557435 L389.858663,150.430559 Z M396.695225,150.430559 L391.967258,150.430559 L391.967258,149.557435 L396.695225,149.557435 L396.695225,150.430559 Z M396.695225,147.741337 L384.436562,147.741337 L384.436562,146.868213 L396.695225,146.868213 L396.695225,147.741337 Z M392.329604,141.481037 L396.695225,141.481037 L396.695225,142.354161 L392.329604,142.354161 L392.329604,141.481037 Z" id="Shape" fill="#40327A" fill-rule="nonzero"></path>
                <polygon id="Path" fill="#40327A" fill-rule="nonzero" points="387.422647 164.457299 387.422647 164.457299 402.549523 164.457299 402.549523 164.457299"></polygon>
                <polygon id="Path" fill="#DDD6FF" fill-rule="nonzero" points="373.544338 167.076671 376.237926 167.076671 373.544338 167.076671"></polygon>
                <path d="M387.422647,164.457299 C386.542023,165.762262 385.178848,166.663716 383.633288,166.963165 C383.255233,167.038201 382.870552,167.074768 382.48513,167.072306 L402.427285,167.072306 L402.549523,164.452933 L387.422647,164.452933 L387.422647,164.457299 Z" id="Path" fill="#DDD6FF" fill-rule="nonzero"></path>
                <path d="M388.369986,160.218281 C388.604385,161.704487 388.265791,163.224258 387.422647,164.470396 L402.549523,164.470396 L402.732879,160.510778 L402.85075,157.961255 L388.369986,160.218281 Z" id="Path" fill="#7760DB" fill-rule="nonzero"></path>
                <rect id="Rectangle" fill="#FFFFFF" fill-rule="nonzero" x="377.486494" y="141.481037" width="12.3678035" height="1"></rect>
                <rect id="Rectangle" fill="#FFFFFF" fill-rule="nonzero" x="380.542428" y="144.174625" width="13.6076398" height="1"></rect>
                <rect id="Rectangle" fill="#FFFFFF" fill-rule="nonzero" x="384.436562" y="146.868213" width="12.2630286" height="1"></rect>
                <rect id="Rectangle" fill="#FFFFFF" fill-rule="nonzero" x="386.366166" y="149.557435" width="3.49249659" height="1"></rect>
                <rect id="Rectangle" fill="#FFFFFF" fill-rule="nonzero" x="391.967258" y="149.557435" width="4.72796726" height="1"></rect>
                <rect id="Rectangle" fill="#FFFFFF" fill-rule="nonzero" x="392.329604" y="141.481037" width="4.36562074" height="1"></rect>
                <path d="M384.436562,186.036562 C384.309959,186.036562 384.183356,186.036562 384.052387,186.036562 C381.385354,186.038589 379.180325,188.115487 379.018827,190.777626 L389.059754,191.567804 C389.077302,191.401031 389.085949,191.23345 389.085949,191.065757 C389.085008,188.433325 387.060825,186.243786 384.436562,186.036562 L384.436562,186.036562 Z" id="Path" fill="#061D78" fill-rule="nonzero"></path>
                <path d="M379.018827,190.777626 C379.171458,188.108601 381.379002,186.021677 384.052387,186.0191 C384.183356,186.0191 384.309959,186.0191 384.436562,186.0191 L384.436562,186.0191 L373.177626,185.1809 C372.559634,187.185916 371.748177,189.126102 370.754707,190.974079 L370.370532,190.764529 C368.183043,194.821026 365.157652,198.365778 361.495225,201.163438 L364.664666,214.517872 L367.026467,196.042565 L378.599727,196.081855 L374.670668,246.351978 L374.670668,246.351978 C374.670668,246.448022 374.670668,246.544065 374.670668,246.640109 L382.044202,246.640109 L382.044202,246.640109 L389.094679,191.545975 L389.094679,191.545975 L379.018827,190.777626 Z" id="Path" fill="#061D78" fill-rule="nonzero"></path>
                <path d="M374.644475,246.657572 L374.644475,251.023192 L385.72442,251.023192 C386.224044,251.021536 386.659284,250.682123 386.782637,250.197962 C386.90599,249.713802 386.686217,249.207507 386.248295,248.966985 L382.031105,246.657572 L382.031105,246.657572 L374.644475,246.657572 Z" id="Path" fill="#624AC9" fill-rule="nonzero"></path>
                <path d="M356.470396,204.31105 L353.165621,246.365075 L353.165621,246.365075 C353.165621,246.461119 353.165621,246.557162 353.165621,246.653206 L360.539154,246.653206 L360.539154,246.653206 L363.385539,224.38854 L357.422101,203.830832 C357.094679,204.001091 356.789086,204.162619 356.470396,204.31105 Z" id="Path" fill="#061D78" fill-rule="nonzero"></path>
                <path d="M353.165621,246.657572 L353.165621,251.023192 L364.249932,251.023192 C364.749556,251.021536 365.184796,250.682123 365.308149,250.197962 C365.431502,249.713802 365.211729,249.207507 364.773806,248.966985 L360.552251,246.657572 L360.552251,246.657572 L353.165621,246.657572 Z" id="Path" fill="#624AC9" fill-rule="nonzero"></path>
                <path d="M357.422101,203.830832 L363.398636,224.4191 L371.117053,251.023192 L373.299864,251.023192 L364.642838,214.535334 L361.473397,201.1809 C360.191226,202.164412 358.836984,203.050215 357.422101,203.830832 L357.422101,203.830832 Z" id="Path" fill="#E9E6FF" fill-rule="nonzero"></path>
                <path d="M310.487312,251.023192 L312.670123,251.023192 L326.386903,203.830832 C324.965171,203.050746 323.604977,202.163409 322.318145,201.176535 L310.487312,251.023192 Z" id="Path" fill="#E9E6FF" fill-rule="nonzero"></path>
                <path d="M382.48513,167.072422 C382.870552,167.074768 383.255233,167.038201 383.633288,166.963165 C385.178848,166.663716 386.542023,165.762262 387.422647,164.457299 L387.422647,164.457299 C388.265791,163.211161 388.604385,161.691391 388.369986,160.205184 C388.369986,160.126603 388.369986,160.052387 388.335061,159.978172 C388.114615,158.846664 387.568358,157.804224 386.763438,156.97899 L386.763438,156.97899 L383.375716,153.486494 L375.081037,163.239291 L370.885675,160.331787 C372.006816,162.474196 372.885377,164.735026 373.505048,167.072422 L382.445839,167.072422 L382.48513,167.072422 Z" id="Path" fill="#FF95A9" fill-rule="nonzero"></path>
                <path d="M343.692224,122.674061 L349.406821,122.674061 C350.478574,122.675101 351.506828,122.250161 352.265082,121.492726 C353.023336,120.735291 353.449387,119.707497 353.449386,118.635744 L353.449386,116.741064 C353.458981,115.433858 354.521408,114.379228 355.828649,114.379263 L356.190996,114.379263 C357.925257,114.379462 359.338562,112.987541 359.364802,111.253479 C359.748269,111.35586 360.142401,111.413002 360.539154,111.423738 L360.665757,111.423738 C362.861792,111.377856 364.74678,109.84783 365.24332,107.708176 C365.73986,105.568521 364.721369,103.364698 362.769986,102.356344 C362.419327,100.607516 361.128278,99.1971128 359.41719,98.693588 C359.073853,98.5709481 358.712192,98.5074727 358.347613,98.5058663 L353.471214,98.5058663 C352.658324,98.5049666 351.876428,98.8177252 351.288404,99.3789905 C350.531348,98.4174204 349.288331,97.9776309 348.095003,98.2491388 C346.901674,98.5206468 345.971289,99.454932 345.704775,100.649386 C341.532915,100.918578 338.286048,104.379356 338.28322,108.559891 L338.28322,117.260573 C338.283627,119.847503 340.111492,122.073843 342.64884,122.577899 C342.992637,122.644102 343.342119,122.676272 343.692224,122.674061 L343.692224,122.674061 Z" id="Path" fill="#2F2F2F" fill-rule="nonzero"></path>
                <path d="M353.54543,133.793179 L353.54543,126.720873 L357.116508,126.720873 C359.240163,126.722738 360.987153,125.048941 361.076126,122.927149 C361.082679,122.804999 361.082679,122.682586 361.076126,122.560437 L360.539154,111.419372 C360.142401,111.408636 359.748269,111.351494 359.364802,111.249113 C359.338562,112.983176 357.925257,114.375096 356.190996,114.374898 L355.828649,114.374898 C354.514619,114.374898 353.449386,115.44013 353.449386,116.754161 L353.449386,118.64884 C353.449387,119.720594 353.023336,120.748388 352.265082,121.505823 C351.506828,122.263258 350.478574,122.688198 349.406821,122.68704 L343.692224,122.68704 C343.335996,122.68765 342.980604,122.65255 342.631378,122.582265 L342.631378,126.720873 L342.631378,126.720873 L342.631378,133.793179 L353.54543,133.793179 Z" id="Path" fill="#FF95A9" fill-rule="nonzero"></path>
                <polygon id="Path" fill="#FF95A9" fill-rule="nonzero" points="330.665211 136.443111 330.665211 136.443111 330.660846 136.443111 330.665211 136.443111"></polygon>
                <path d="M316.188813,155.944338 L314.093315,153.464666 L310.705593,156.957162 L310.705593,156.957162 C309.55567,158.141107 308.949586,159.749748 309.032378,161.39814 C309.115171,163.046532 309.879388,164.586348 311.142156,165.649113 C312.260498,162.15084 313.967177,158.868879 316.188813,155.944338 L316.188813,155.944338 Z" id="Path" fill="#FF95A9" fill-rule="nonzero"></path>
                <polygon id="Path" fill="#FF95A9" fill-rule="nonzero" points="366.830014 136.447476 366.830014 136.447476 366.830014 136.451842 366.830014 136.451842"></polygon>
                <path d="M316.188813,155.944338 C320.337418,150.489691 326.111309,146.493675 332.677763,144.532606 L332.55116,144.096044 C347.574134,139.639827 363.649772,146.441832 370.911869,160.327422 L375.107231,163.234925 L383.40191,153.482128 L383.40191,153.482128 L367.554707,137.167804 L366.847476,136.443111 L366.847476,136.443111 C365.410178,134.951504 363.487218,134.022538 361.425375,133.823738 C361.186257,133.795886 360.945779,133.781311 360.705048,133.780082 L336.794543,133.780082 C336.555267,133.781446 336.31625,133.79602 336.078581,133.823738 C334.02088,134.028283 332.10256,134.956502 330.665211,136.443111 L330.665211,136.443111 L314.075853,153.469031 L314.075853,153.469031 L316.188813,155.944338 Z" id="Path" fill="#CCC2FF" fill-rule="nonzero"></path>
                <path d="M414.978445,216.705048 C418.017801,216.707455 420.481085,219.170739 420.483492,222.210095 L421.356617,222.210095 C421.266166,218.753704 418.438202,215.998777 414.980628,215.998777 C411.523053,215.998777 408.695089,218.753704 408.604638,222.210095 L409.477763,222.210095 C409.477762,219.171446 411.939796,216.707457 414.978445,216.705048 Z" id="Path" fill="#40327A" fill-rule="nonzero"></path>
                <polygon id="Path" fill="#CCC2FF" fill-rule="nonzero" points="421.352251 222.20573 420.479127 222.20573 409.477763 222.20573 408.604638 222.20573 394.023465 222.20573 394.023465 236.175716 409.7397 236.175716 409.7397 236.175716 415.851569 236.175716 415.851569 236.175716 431.567804 236.175716 431.567804 237.04884 415.851569 237.04884 415.851569 240.104775 409.7397 240.104775 409.7397 237.04884 394.023465 237.04884 394.023465 251.018827 431.567804 251.018827 431.567804 222.20573"></polygon>
                <rect id="Rectangle" fill="#40327A" fill-rule="nonzero" x="431.567804" y="222.20573" width="4.36562074" height="28.8130969"></rect>
                <polygon id="Path" fill="#40327A" fill-rule="nonzero" points="409.7397 236.175716 394.023465 236.175716 394.023465 236.175716 394.023465 237.04884 394.023465 237.04884 409.7397 237.04884"></polygon>
                <rect id="Rectangle" fill="#40327A" fill-rule="nonzero" x="415.851569" y="236.175716" width="15.7162347" height="1"></rect>
                <polygon id="Path" fill="#FFFFFF" fill-rule="nonzero" points="409.7397 240.104775 415.851569 240.104775 415.851569 237.04884 415.851569 236.175716 415.851569 236.175716 409.7397 236.175716 409.7397 236.175716 409.7397 237.04884"></polygon>
                <path d="M374.487312,172.258663 L389.081583,172.258663 L389.081583,171.385539 L374.382538,171.385539 C374.417462,171.678035 374.456753,171.966166 374.487312,172.258663 Z" id="Path" fill="#40327A" fill-rule="nonzero"></path>
                <path d="M361.495225,201.176535 C365.157652,198.378875 368.183043,194.834123 370.370532,190.777626 L369.986357,190.572442 C376.08839,179.229115 374.762277,165.32785 366.625623,155.342825 C358.488968,145.357799 345.141707,141.252397 332.8,144.938608 L332.677763,144.52824 C321.030852,148.001974 312.319168,157.718656 310.132607,169.674253 C307.946046,181.629851 312.654665,193.800974 322.318145,201.172169 C332.158086,208.681825 345.426462,209.901301 356.470396,204.31105 C356.789086,204.149523 357.107776,203.987995 357.422101,203.817735 C358.844205,203.040864 360.205766,202.157965 361.495225,201.176535 L361.495225,201.176535 Z M347.14543,150.792906 C348.350963,150.792906 349.32824,151.770183 349.32824,152.975716 C349.32824,154.181249 348.350963,155.158527 347.14543,155.158527 L336.66794,155.158527 C335.462407,155.158527 334.48513,154.181249 334.48513,152.975716 C334.48513,151.770183 335.462407,150.792906 336.66794,150.792906 L347.14543,150.792906 Z" id="Shape" fill="#6B92F7" fill-rule="nonzero"></path>
                <path d="M370.911869,160.336153 C363.649772,146.450564 347.574134,139.648558 332.55116,144.104775 L332.677763,144.541337 L332.8,144.951705 C345.140505,141.267083 358.485775,145.3722 366.621882,155.3556 C374.75799,165.338999 376.085528,179.23813 369.986357,190.581173 L370.370532,190.786357 L370.754707,190.995907 C371.748177,189.14793 372.559634,187.207744 373.177626,185.202729 C374.1496,182.059352 374.645501,178.788172 374.64884,175.497954 C374.64884,174.406548 374.592087,173.315143 374.487312,172.263029 C374.456753,171.970532 374.417462,171.682401 374.382538,171.389905 C374.200035,169.936451 373.920004,168.496915 373.544338,167.081037 L373.544338,167.081037 C372.920792,164.741716 372.037825,162.479387 370.911869,160.336153 Z" id="Path" fill="#082A92" fill-rule="nonzero"></path>
                <path d="M336.66794,155.158527 L347.14543,155.158527 C348.350963,155.158527 349.32824,154.181249 349.32824,152.975716 C349.32824,151.770183 348.350963,150.792906 347.14543,150.792906 L336.66794,150.792906 C335.462407,150.792906 334.48513,151.770183 334.48513,152.975716 C334.48513,154.181249 335.462407,155.158527 336.66794,155.158527 Z" id="Path" fill="#577DDD" fill-rule="nonzero"></path>
                <rect id="Rectangle" fill="#CCC2FF" fill-rule="nonzero" x="468.53588" y="7.98472033" width="6.61828104" height="1"></rect>
                <rect id="Rectangle" fill="#CCC2FF" fill-rule="nonzero" x="306.588813" y="103.609277" width="1" height="29.8652115"></rect>
                <polygon id="Path" fill="#CCC2FF" fill-rule="nonzero" points="519.002456 56.8622101 518.129332 56.8622101 518.129332 8.85784447 506.756889 8.85784447 506.756889 7.98472033 519.002456 7.98472033"></polygon>
                <rect id="Rectangle" fill="#CCC2FF" fill-rule="nonzero" x="418.147885" y="150.461119" width="70.2777626" height="1"></rect>
                <path d="M540.503138,118.504775 C540.503138,118.631378 540.503138,118.757981 540.503138,118.893315 C540.503138,121.451569 541.764802,123.175989 543.022101,124.944065 C544.2794,126.712142 545.532333,128.532606 545.532333,131.256753 L545.532333,131.256753 L551.229468,124.773806 L543.12251,120.05457 L543.12251,120.05457 L540.503138,118.504775 Z" id="Path"></path>
                <path d="M532.906958,142.319236 L534.002729,143.166166 C534.1206,143.257844 534.229741,143.353888 534.343247,143.449932 L535.050477,143.183629 L537.372988,140.542428 L537.372988,140.542428 L545.523602,131.26985 L545.523602,131.26985 C545.523602,128.545703 544.266303,126.73397 543.01337,124.957162 C541.760437,123.180355 540.494407,121.464666 540.494407,118.906412 C540.494407,118.771078 540.494407,118.644475 540.494407,118.517872 L539.097408,117.697135 L538.294134,120.892769 L532.906958,142.319236 Z" id="Path" fill="#2F2F2F" fill-rule="nonzero"></path>
                <path d="M512.397271,106.72633 L512.397271,106.700136 L512.397271,106.700136 C512.484584,106.595362 512.576262,106.499318 512.672306,106.398909 L512.672306,106.398909 L512.724693,106.342156 L512.768349,106.298499 C512.798097,106.262933 512.830183,106.229389 512.864393,106.19809 C512.929877,106.132606 512.999727,106.080218 513.069577,106.0191 L513.069577,106.0191 L513.113233,105.984175 L513.165621,105.936153 C513.296589,105.831378 513.427558,105.735334 513.562892,105.643656 L513.602183,105.613097 C513.742579,105.517514 513.888339,105.430058 514.038745,105.35116 L514.064939,105.35116 C514.222101,105.268213 514.374898,105.193997 514.536426,105.124147 L514.562619,105.124147 C514.705325,105.060425 514.851014,105.003606 514.999181,104.953888 L514.999181,104.953888 L515.034106,104.953888 L515.034106,104.953888 C515.2,104.905866 515.365894,104.86221 515.531787,104.827285 L515.571078,104.827285 C516.014664,104.735948 516.46735,104.696393 516.920055,104.709413 L519.613643,104.709413 C519.607067,104.585808 519.607067,104.461941 519.613643,104.338336 L520.141883,97.4624829 C515.874189,96.8288965 512.823553,93.0022548 513.156889,88.7006821 L513.833561,79.9432469 C513.893814,79.1496047 514.073366,78.3695804 514.366166,77.6294679 L514.414188,77.6294679 C517.823179,77.8920282 521.0531,79.2609506 523.612551,81.5279673 C525.610551,83.3001459 528.131644,84.3729515 530.793997,84.5839018 L531.191269,84.6144611 C532.27357,84.7263988 533.069851,85.6799248 532.987033,86.7648433 C532.904215,87.8497618 531.972427,88.6713742 530.885675,88.6177353 L530.484038,88.587176 L530.121692,93.2976808 L530.121692,93.2976808 L529.248568,104.72251 L537.835744,104.72251 C538.012571,104.725843 538.189008,104.740425 538.363984,104.766166 C539.126665,104.863976 539.861709,105.114931 540.524966,105.503956 C540.738262,105.635594 540.942453,105.781445 541.136153,105.940518 L541.136153,105.940518 L542.987176,107.372442 C542.987176,106.992633 542.987176,106.58663 542.987176,106.154434 C542.73397,99.8461119 538.054025,100.094952 537.800819,93.7909959 C537.765494,93.0578179 537.831603,92.3232741 537.997271,91.6081855 C538.492375,90.7755546 538.908905,89.8986484 539.241473,88.9888131 C539.302592,88.8316508 539.359345,88.6657572 539.411733,88.5085948 C541.642724,81.8109816 539.287608,74.4394115 533.586651,70.2759477 C527.885693,66.1124839 520.147049,66.1124839 514.446092,70.2759477 C508.745134,74.4394115 506.390018,81.8109816 508.62101,88.5085948 C508.673397,88.6657572 508.73015,88.8229195 508.786903,88.9800819 L508.786903,88.9800819 C509.123469,89.8889792 509.541352,90.7656571 510.035471,91.5994543 C510.198168,92.3075849 510.262801,93.0347113 510.227558,93.7604366 C509.974352,100.064393 505.303138,99.8155525 505.049932,106.123874 C504.892769,110.013643 505.923056,111.598363 506.700136,113.720055 L512.31869,106.809277 L512.397271,106.72633 Z" id="Path" fill="#2F2F2F" fill-rule="nonzero"></path>
                <path d="M512.606821,142.319236 L512.606821,142.319236 L511.864666,126.288677 L511.79045,126.288677 L511.506685,126.240655 L511.366985,126.214461 C511.227285,126.183902 511.087585,126.148977 510.930423,126.109686 L510.930423,126.109686 C510.749562,126.056982 510.571755,125.994312 510.397817,125.921965 L510.271214,125.865211 C510.134425,125.809914 510.003456,125.748795 509.878308,125.681855 L509.78663,125.625102 C509.655662,125.550887 509.520327,125.476671 509.393724,125.393724 L509.345703,125.354434 L509.249659,125.284584 L503.342974,130.898772 L503.342974,130.898772 C503.138289,131.093875 502.914518,131.267919 502.675034,131.418281 C502.739257,137.197618 506.314244,142.35611 511.703138,144.445293 C511.982538,143.7206 512.283765,143.009004 512.628649,142.31487 L512.606821,142.319236 Z" id="Path" fill="#2F2F2F" fill-rule="nonzero"></path>
                <polygon id="Path" fill="#F04F4F" fill-rule="nonzero" points="521.582538 142.31487 532.906958 142.31487 532.906958 142.31487 532.906958 142.31487 532.906958 142.31487 532.906958 142.31487 512.606821 142.31487 512.606821 142.31487"></polygon>
                <path d="M514.606276,105.07176 L514.580082,105.07176 L514.606276,105.07176 Z" id="Path" fill="#FF95A9" fill-rule="nonzero"></path>
                <path d="M513.209277,105.909959 L513.156889,105.957981 L513.209277,105.909959 Z" id="Path" fill="#FF95A9" fill-rule="nonzero"></path>
                <path d="M512.759618,106.324693 L512.803274,106.281037 L512.759618,106.324693 Z" id="Path" fill="#FF95A9" fill-rule="nonzero"></path>
                <path d="M513.645839,105.586903 L513.606548,105.617462 L513.645839,105.586903 Z" id="Path" fill="#FF95A9" fill-rule="nonzero"></path>
                <path d="M514.108595,105.307503 L514.082401,105.307503 L514.108595,105.307503 Z" id="Path" fill="#FF95A9" fill-rule="nonzero"></path>
                <path d="M473.019372,115.064666 L473.019372,115.064666 L468.016371,113.506139 L468.016371,113.506139 C467.694479,113.405715 467.358029,113.35997 467.02101,113.370805 C465.333264,113.420232 464.005144,114.828489 464.05457,116.516235 C464.103997,118.203981 465.512254,119.532101 467.2,119.482674 L471.923602,119.342974 L475.154161,120.827285 L476.900409,116.265211 L473.019372,115.064666 Z" id="Path" fill="#FF95A9" fill-rule="nonzero"></path>
                <rect id="Rectangle" fill="#FF95A9" fill-rule="nonzero" transform="translate(500.263080, 127.889388) rotate(-75.960000) translate(-500.263080, -127.889388) " x="496.148482" y="127.836055" width="8.22919509" height="1"></rect>
                <rect id="Rectangle" fill="#FFFFFF" fill-rule="nonzero" transform="translate(534.914980, 132.444749) rotate(-75.870000) translate(-534.914980, -132.444749) " x="534.482784" y="132.008187" width="1" height="1"></rect>
                <path d="M533.666576,150.042019 C532.725989,150.793024 531.432174,150.921965 530.36187,150.371363 C529.291566,149.820762 528.644148,148.693183 528.708214,147.491265 C528.772279,146.289346 529.535893,145.23698 530.658663,144.803274 L534.343247,143.428104 C534.229741,143.33206 534.1206,143.236016 534.002729,143.144338 L532.906958,142.297408 L512.606821,142.297408 C512.261937,142.991542 511.960709,143.703138 511.68131,144.427831 C510.566067,147.311917 509.991858,150.376831 509.987449,153.469031 L509.987449,159.449932 C509.987449,159.602729 509.987449,159.755525 510.013643,159.908322 L510.013643,159.908322 L510.048568,160.375443 L510.921692,160.309959 L512.327422,179.243656 L513.169986,190.550614 L527.655116,190.550614 L527.655116,191.423738 L512.375443,191.423738 L511.47176,179.309141 L510.598636,167.731514 L512.344884,191.423738 L530.562619,191.423738 L530.562619,191.480491 L530.562619,191.480491 L531.627831,191.423738 L540.407094,191.423738 L540.407094,190.939154 L540.407094,190.939154 L540.407094,190.563711 L539.839563,159.375716 L539.839563,155.084311 C539.838733,152.190355 539.008501,149.357264 537.447203,146.9206 L533.66221,150.028922 L533.666576,150.042019 Z M540.389632,189.39809 L539.516508,189.39809 L539.202183,173.0794 L540.075307,173.0794 L540.389632,189.39809 Z M540.057844,172.02292 L539.18472,172.02292 L539.154161,170.403274 L540.027285,170.403274 L540.057844,172.02292 Z" id="Shape" fill="#061D78" fill-rule="nonzero"></path>
                <path d="M510.410914,125.904502 L510.284311,125.847749 L510.410914,125.904502 Z" id="Path" fill="#FFC359" fill-rule="nonzero"></path>
                <path d="M509.406821,125.376262 L509.358799,125.336971 L509.406821,125.376262 Z" id="Path" fill="#FFC359" fill-rule="nonzero"></path>
                <path d="M511.506685,126.227558 L511.366985,126.201364 L511.506685,126.227558 Z" id="Path" fill="#FFC359" fill-rule="nonzero"></path>
                <path d="M509.891405,125.664393 L509.799727,125.60764 L509.891405,125.664393 Z" id="Path" fill="#FFC359" fill-rule="nonzero"></path>
                <rect id="Rectangle" fill="#FFFFFF" fill-rule="nonzero" opacity="0.0954008557" transform="translate(513.396317, 110.833113) rotate(-52.820000) translate(-513.396317, -110.833113) " x="512.94011" y="110.396551" width="1" height="1"></rect>
                <path d="M509.406821,125.376262 C509.533424,125.459209 509.668759,125.533424 509.799727,125.60764 L509.891405,125.664393 C510.016553,125.728422 510.147522,125.789541 510.284311,125.847749 L510.410914,125.904502 C510.584852,125.97685 510.762659,126.039519 510.94352,126.092224 L510.94352,126.092224 C511.078854,126.131514 511.218554,126.166439 511.380082,126.196999 L511.519782,126.223192 L511.803547,126.271214 C513.201637,126.463074 514.620833,126.123464 515.780628,125.319509 L515.287312,124.599181 C514.096202,125.420579 512.598233,125.661152 511.209823,125.254025 C509.698585,124.805939 508.503469,123.64474 508.012072,122.147025 C507.520675,120.649311 507.795573,119.005804 508.747613,117.749523 L512.755252,112.45839 L512.056753,111.93015 L508.31105,116.867667 L508.053479,117.221282 C507.128829,118.442507 506.737095,119.985645 506.967296,121.500034 C507.197496,123.014424 508.03008,124.371454 509.275853,125.262756 L509.371896,125.332606 L509.406821,125.376262 Z" id="Path" fill="#FFFFFF" fill-rule="nonzero" opacity="0.0954008557"></path>
                <path d="M522.429468,124.546794 L521.91869,125.254025 C522.440167,125.630299 523.021799,125.91521 523.638745,126.096589 C524.1606,126.249413 524.701522,126.327317 525.245293,126.327967 C526.393564,126.328134 527.514533,125.977831 528.45839,125.323874 L527.960709,124.603547 C526.770706,125.423604 525.274661,125.664125 523.887585,125.25839 C523.365515,125.103519 522.872778,124.863051 522.429468,124.546794 L522.429468,124.546794 Z" id="Path" fill="#FFFFFF" fill-rule="nonzero"></path>
                <path d="M560.148431,120.499864 L543.070123,107.25457 L541.2191,105.822647 C541.0254,105.663573 540.821209,105.517722 540.607913,105.386085 C539.944656,104.997059 539.209612,104.746104 538.44693,104.648295 C538.271955,104.622553 538.095518,104.607972 537.91869,104.604638 L529.331514,104.604638 L529.300955,104.971351 C529.19969,107.623523 526.967588,109.691442 524.315416,109.590177 C521.663244,109.488912 519.595325,107.256811 519.696589,104.604638 L517.003001,104.604638 C516.550297,104.591618 516.09761,104.631173 515.654025,104.72251 L515.614734,104.72251 C515.44884,104.757435 515.282947,104.801091 515.117053,104.849113 L515.082128,104.849113 C514.933961,104.898831 514.788272,104.95565 514.645566,105.019372 L514.619372,105.019372 C514.457844,105.089222 514.305048,105.163438 514.147885,105.246385 L514.121692,105.246385 C513.971285,105.325283 513.825526,105.412739 513.68513,105.508322 L513.645839,105.538881 C513.510505,105.630559 513.379536,105.726603 513.248568,105.831378 L513.19618,105.8794 L513.152524,105.914325 C513.082674,105.975443 513.012824,106.027831 512.94734,106.093315 C512.91313,106.124614 512.881044,106.158158 512.851296,106.193724 L512.80764,106.237381 L512.755252,106.294134 C512.659209,106.394543 512.567531,106.490587 512.480218,106.595362 L512.480218,106.621555 L506.861664,113.532333 L499.134516,123.040655 L476.983356,116.164802 L475.237108,120.726876 L498.846385,131.557981 C500.101738,132.132415 501.560979,132.042339 502.736153,131.317872 C502.975637,131.16751 503.199407,130.993466 503.404093,130.798363 L509.345703,125.166712 C508.09993,124.27541 507.267346,122.91838 507.037146,121.40399 C506.806945,119.889601 507.198679,118.346463 508.123329,117.125239 L508.3809,116.771623 L512.126603,111.834106 L512.825102,112.362347 L508.817462,117.653479 C507.865423,118.90976 507.590525,120.553267 508.081922,122.050982 C508.573319,123.548697 509.768435,124.709895 511.279673,125.157981 C512.668083,125.565109 514.166052,125.324536 515.357162,124.503138 L515.850477,125.223465 C514.690683,126.02742 513.271487,126.36703 511.873397,126.175171 L511.947613,126.175171 L512.689768,142.20573 L532.989905,142.20573 L538.385812,120.770532 L535.932333,130.501501 L535.089768,130.287585 L538.403274,117.116508 L536.504229,116.003274 L536.940791,116.319054 L543.646385,120.248113 L543.209823,119.936698 L551.308049,124.677763 L545.610914,131.160709 L537.394816,140.538063 L540.843656,143.995634 L560.362347,126.856207 C560.497486,126.740001 560.624394,126.614551 560.742156,126.480764 C561.462273,125.65604 561.825023,124.578889 561.750509,123.486559 C561.675995,122.394229 561.170328,121.376318 560.344884,120.657026 C560.2794,120.600273 560.213915,120.552251 560.148431,120.499864 Z M527.960709,124.586085 L528.45839,125.306412 C527.514533,125.960368 526.393564,126.310671 525.245293,126.310505 C524.701522,126.309855 524.1606,126.23195 523.638745,126.079127 C523.021799,125.897748 522.440167,125.612836 521.91869,125.236562 L522.429468,124.529332 C522.872778,124.845589 523.365515,125.086056 523.887585,125.240928 C525.272065,125.651721 526.767906,125.417645 527.960709,124.603547 L527.960709,124.586085 Z M513.484311,111.463029 L512.790177,110.934789 L513.340246,110.210095 L514.034379,110.738336 L513.484311,111.463029 Z M535.465211,132.125512 L535.255662,132.963711 L534.408731,132.749795 L534.618281,131.911596 L535.465211,132.125512 Z" id="Shape" fill="url(#linearGradient-3)"></path>
                <polygon id="Path" fill="#FFFFFF" fill-rule="nonzero" points="540.503138 118.504775 543.126876 120.041473 543.126876 120.041473 543.567804 119.286221 536.86221 115.361528 536.421282 116.112415 538.320327 117.225648 535.006821 130.396726 535.849386 130.610641 538.302865 120.879673 539.106139 117.684038"></polygon>
                <path d="M537.394816,140.538063 L535.072306,143.179263 L534.365075,143.445566 L530.680491,144.820737 C529.557721,145.254442 528.794107,146.306809 528.730042,147.508727 C528.665976,148.710646 529.313394,149.838224 530.383698,150.388826 C531.454002,150.939427 532.747817,150.810487 533.688404,150.059482 L537.473397,146.95116 L537.735334,146.732879 L537.787722,146.693588 L540.843656,144.013097 L537.394816,140.538063 Z" id="Path" fill="#FF95A9" fill-rule="nonzero"></path>
                <path d="M516.53588,247.094134 L513.65457,248.75307 C513.173783,249.024884 512.937153,249.587041 513.078822,250.120867 C513.220491,250.654692 513.704727,251.025543 514.257026,251.023203 L522.206821,251.023203 L522.206821,247.094134 L516.531514,247.094134 L516.53588,247.094134 Z" id="Path" fill="#40327A" fill-rule="nonzero"></path>
                <path d="M540.415825,190.956617 L540.415825,191.441201 L531.636562,191.441201 L530.571351,191.497954 L530.571351,191.497954 L535.757708,247.155252 L535.757708,247.094134 L541.433015,247.094134 C541.439517,246.982177 541.439517,246.869937 541.433015,246.757981 L541.433015,246.757981 L540.415825,190.585539 L540.415825,190.585539 L540.415825,190.960982 L540.415825,190.956617 Z" id="Path" fill="#FF95A9" fill-rule="nonzero"></path>
                <path d="M512.357981,191.441201 C512.357981,191.537244 512.357981,191.628922 512.38854,191.724966 L516.53588,247.089768 L522.211187,247.089768 L522.211187,191.441201 L512.357981,191.441201 Z" id="Path" fill="#FF95A9" fill-rule="nonzero"></path>
                <polygon id="Path" fill="#40327A" fill-rule="nonzero" points="512.353615 191.441201 518.836562 191.441201 527.646385 191.441201 527.646385 190.568076 518.836562 190.568076 513.161255 190.568076 512.323056 179.261119 510.91296 160.327422 510.039836 160.392906 510.039836 160.392906 510.589905 167.748977 511.449932 179.326603"></polygon>
                <rect id="Rectangle" fill="#40327A" fill-rule="nonzero" transform="translate(539.790548, 181.258424) rotate(-1.090000) translate(-539.790548, -181.258424) " x="539.353986" y="173.099079" width="1" height="16.3186903"></rect>
                <rect id="Rectangle" fill="#40327A" fill-rule="nonzero" transform="translate(539.595977, 171.237446) rotate(-1.100000) translate(-539.595977, -171.237446) " x="539.159415" y="170.427624" width="1" height="1.61964529"></rect>
                <path d="M530.204638,93.2016371 L530.566985,88.4911323 L530.968622,88.5216917 C532.055374,88.5753306 532.987162,87.7537182 533.06998,86.6687997 C533.152798,85.5838812 532.356517,84.6303552 531.274216,84.5184175 L530.876944,84.4878581 C528.214591,84.2769078 525.693498,83.2041023 523.695498,81.4319236 C521.136047,79.164907 517.906126,77.7959846 514.497135,77.5334243 L514.449113,77.5334243 C514.156313,78.2735368 513.97676,79.053561 513.916508,79.8472033 L513.239836,88.622101 C512.9065,92.9236736 515.957136,96.7503153 520.224829,97.3839018 L519.696589,104.259754 C519.690014,104.38336 519.690014,104.507227 519.696589,104.630832 C519.631083,106.346487 520.485843,107.966765 521.93889,108.881323 C523.391937,109.79588 525.222519,109.865775 526.741073,109.064679 C528.259626,108.263582 529.235448,106.713199 529.300955,104.997544 L529.331514,104.630832 L530.204638,93.2060027 L530.204638,93.2016371 Z M519.434652,93.1667121 C518.797261,93.1102479 518.208635,92.8021497 517.798989,92.3105745 C517.389343,91.8189992 517.192441,91.1844642 517.251842,90.5473397 L522.054025,90.9620737 C522.004202,91.6038484 521.698777,92.1987428 521.206293,92.6132503 C520.713809,93.0277577 520.075513,93.2271618 519.434652,93.1667121 L519.434652,93.1667121 Z" id="Shape" fill="#FF95A9" fill-rule="nonzero"></path>
                <path d="M535.766439,247.094134 L535.766439,251.023231 L543.716235,251.023231 C544.269353,251.027558 544.755448,250.657373 544.898291,250.123 C545.041133,249.588626 544.80458,249.025271 544.323056,248.75307 L541.441746,247.094134 L535.766439,247.094134 L535.766439,247.094134 Z" id="Path" fill="#40327A" fill-rule="nonzero"></path>
                <path d="M522.032196,90.9795362 L517.230014,90.5648022 C517.115488,91.8908883 518.097652,93.0587349 519.423738,93.1732606 C520.749824,93.2877862 521.917671,92.3056223 522.032196,90.9795362 Z" id="Path" fill="#FFFFFF" fill-rule="nonzero"></path>
                <rect id="Rectangle" fill="#CCC2FF" fill-rule="nonzero" x="491.926876" y="150.775443" width="6.03765348" height="1"></rect>
                <rect id="Rectangle" fill="#DDD6FF" fill-rule="nonzero" transform="translate(170.133060, 41.189671) rotate(-3.470000) translate(-170.133060, -41.189671) " x="164.551614" y="40.7531089" width="11.1628922" height="1"></rect>
                <rect id="Rectangle" fill="#DDD6FF" fill-rule="nonzero" transform="translate(187.826052, 40.120687) rotate(-3.470000) translate(-187.826052, -40.120687) " x="186.191127" y="39.6841248" width="3.26984993" height="1"></rect>
                <rect id="Rectangle" fill="#DDD6FF" fill-rule="nonzero" transform="translate(200.005161, 39.393544) rotate(-3.470000) translate(-200.005161, -39.393544) " x="192.668735" y="38.9569822" width="14.6728513" height="1"></rect>
                <rect id="Rectangle" fill="#DDD6FF" fill-rule="nonzero" transform="translate(205.592941, 49.721598) rotate(-83.090000) translate(-205.592941, -49.721598) " x="205.156379" y="8.2678458" width="1" height="82.9075034"></rect>
                <rect id="Rectangle" fill="#DDD6FF" fill-rule="nonzero" transform="translate(187.287615, 56.033800) rotate(-71.630000) translate(-187.287615, -56.033800) " x="186.851053" y="34.9238409" width="1" height="42.2199181"></rect>
                <rect id="Rectangle" fill="#DDD6FF" fill-rule="nonzero" transform="translate(195.262253, 32.046846) rotate(-12.290000) translate(-195.262253, -32.046846) " x="163.319007" y="31.6102835" width="63.8864939" height="1"></rect>
                <rect id="Rectangle" fill="#DDD6FF" fill-rule="nonzero" transform="translate(169.242309, 55.626920) rotate(-59.860000) translate(-169.242309, -55.626920) " x="168.805747" y="46.552977" width="1" height="18.1478854"></rect>
                <rect id="Rectangle" fill="#DDD6FF" fill-rule="nonzero" transform="translate(199.143741, 72.988501) rotate(-59.860000) translate(-199.143741, -72.988501) " x="198.707179" y="55.3623069" width="1" height="35.2523874"></rect>
                <rect id="Rectangle" fill="#DDD6FF" fill-rule="nonzero" x="87.5918145" y="34.7197817" width="47.2185539" height="15.7336971"></rect>
                <rect id="Rectangle" fill="#B3A4F5" fill-rule="nonzero" x="120.416917" y="3.33481391e-13" width="1" height="34.7197817"></rect>
                <rect id="Rectangle" fill="#5464B3" fill-rule="nonzero" x="59.3200546" y="251.018827" width="19.1476126" height="1"></rect>
                <rect id="Rectangle" fill="#C4B8FF" fill-rule="nonzero" opacity="0.15" x="268.944065" y="257.571623" width="25.0630286" height="1"></rect>
                <rect id="Rectangle" fill="#5464B3" fill-rule="nonzero" x="40.8185539" y="251.018827" width="7.11159618" height="1"></rect>
                <polygon id="Path" fill="#FFFFFF" fill-rule="nonzero" points="134.810368 43.1017735 134.810368 50.4578445 87.5918145 50.4578445"></polygon>
                <rect id="Rectangle" fill="#FFFFFF" fill-rule="nonzero" x="91.154161" y="40.805457" width="17.554161" height="1"></rect>
                <rect id="Rectangle" fill="#FFFFFF" fill-rule="nonzero" x="91.154161" y="43.499045" width="17.554161" height="1"></rect>
                <rect id="Rectangle" fill="#FFFFFF" fill-rule="nonzero" x="91.154161" y="46.192633" width="17.554161" height="1"></rect>
                <rect id="Rectangle" fill="#FFFFFF" fill-rule="nonzero" x="91.154161" y="38.1162347" width="17.554161" height="1"></rect>
                <rect id="Rectangle" fill="#7760DB" fill-rule="nonzero" x="128.567531" y="50.0212824" width="15.5547067" height="1"></rect>
                <rect id="Rectangle" fill="#7760DB" fill-rule="nonzero" x="98.9380628" y="50.0212824" width="25.8139154" height="1"></rect>
                <rect id="Rectangle" fill="#7760DB" fill-rule="nonzero" x="87.5918145" y="50.0212824" width="3.56234652" height="1"></rect>
                <path d="M609.493042,161.899045 L609.493042,161.899045 C608.806058,161.211511 607.873978,160.825212 606.902046,160.825212 C605.930115,160.825212 604.998035,161.211511 604.31105,161.899045 L602.263574,163.942156 C601.521934,164.683721 600.406627,164.905545 599.437672,164.504203 C598.468717,164.102861 597.836911,163.15738 597.836835,162.108595 L597.836835,162.108595 C597.836885,161.42086 598.110126,160.761311 598.596453,160.275034 L609.510505,149.360982 C610.198304,148.673253 610.584712,147.740449 610.584712,146.767804 C610.584712,145.795158 610.198304,144.862354 609.510505,144.174625 L609.510505,144.174625 C608.823521,143.487091 607.89144,143.100792 606.919509,143.100792 C605.947578,143.100792 605.015497,143.487091 604.328513,144.174625 L602.281037,146.217735 C601.539396,146.9593 600.42409,147.181125 599.455135,146.779783 C598.48618,146.37844 597.854373,145.432959 597.854297,144.384175 L597.854297,127.196726 C597.851888,125.173136 596.210768,123.53397 594.187176,123.53397 L594.187176,123.53397 C592.164292,123.53397 590.52442,125.173842 590.52442,127.196726 L590.52442,144.401637 C590.501581,145.440235 589.867117,146.367188 588.907203,146.764394 C587.947289,147.161599 586.843349,146.953986 586.093315,146.235198 L584.050205,144.192087 C583.363221,143.504553 582.43114,143.118254 581.459209,143.118254 C580.487277,143.118254 579.555197,143.504553 578.868213,144.192087 L578.868213,144.192087 C578.180413,144.879817 577.794006,145.81262 577.794006,146.785266 C577.794006,147.757912 578.180413,148.690715 578.868213,149.378445 L589.782265,160.292497 C590.268591,160.778774 590.541833,161.438323 590.541883,162.126057 L590.541883,162.126057 C590.519043,163.164655 589.884579,164.091608 588.924665,164.488814 C587.964751,164.88602 586.860811,164.678406 586.110778,163.959618 L584.067667,161.916508 C583.380683,161.228973 582.448602,160.842674 581.476671,160.842674 C580.50474,160.842674 579.572659,161.228973 578.885675,161.916508 L578.885675,161.916508 C578.198141,162.603492 577.811842,163.535572 577.811842,164.507503 C577.811842,165.479435 578.198141,166.411515 578.885675,167.098499 L589.799727,178.012551 C590.283641,178.500437 590.556452,179.158946 590.559345,179.846112 L590.559345,179.846112 C590.538187,180.885499 589.904348,181.814003 588.944072,182.212304 C587.983796,182.610606 586.878852,182.403312 586.12824,181.684038 L584.08513,179.636562 C582.652508,178.209594 580.335759,178.209594 578.903138,179.636562 L578.903138,179.636562 C578.215338,180.324291 577.82893,181.257095 577.82893,182.229741 C577.82893,183.202387 578.215338,184.13519 578.903138,184.82292 L589.81719,195.736971 C590.301103,196.224857 590.573914,196.883366 590.576808,197.570532 L590.576808,197.570532 C590.578506,198.621239 589.946011,199.569125 588.975139,199.970865 C588.004267,200.372605 586.886929,200.148788 586.145703,199.404093 L584.102592,197.360982 C583.415608,196.673448 582.483527,196.287149 581.511596,196.287149 C580.539665,196.287149 579.607584,196.673448 578.9206,197.360982 L578.9206,197.360982 C578.232801,198.048712 577.846393,198.981515 577.846393,199.954161 C577.846393,200.926807 578.232801,201.85961 578.9206,202.54734 L594.243929,217.870668 L609.567258,202.54734 C610.255057,201.85961 610.641465,200.926807 610.641465,199.954161 C610.641465,198.981515 610.255057,198.048712 609.567258,197.360982 L609.567258,197.360982 C608.880274,196.673448 607.948193,196.287149 606.976262,196.287149 C606.004331,196.287149 605.07225,196.673448 604.385266,197.360982 L602.33779,199.404093 C601.596149,200.145658 600.480843,200.367483 599.511888,199.96614 C598.542933,199.564798 597.911126,198.619317 597.91105,197.570532 L597.91105,197.570532 C597.913944,196.883366 598.186755,196.224857 598.670668,195.736971 L609.58472,184.82292 C610.27252,184.13519 610.658928,183.202387 610.658928,182.229741 C610.658928,181.257095 610.27252,180.324291 609.58472,179.636562 L609.58472,179.636562 C608.152099,178.209594 605.83535,178.209594 604.402729,179.636562 L602.355252,181.684038 C601.61305,182.426167 600.496684,182.647716 599.527331,182.245253 C598.557979,181.84279 597.92682,180.895691 597.928513,179.846112 L597.928513,179.846112 C597.931406,179.158946 598.204217,178.500437 598.688131,178.012551 L609.602183,167.098499 C610.280845,166.396379 610.651045,165.452327 610.630552,164.47604 C610.610059,163.499754 610.20057,162.572068 609.493042,161.899045 Z" id="Path" fill="#1D3E8F" fill-rule="nonzero"></path>
                <rect id="Rectangle" fill="#092B7E" fill-rule="nonzero" x="593.733151" y="153.150341" width="1" height="83.86794"></rect>
                <path d="M578.453479,231.159618 L609.885948,231.159618 L609.885948,240.218281 C609.885948,246.183964 605.051085,251.020782 599.085402,251.023192 L589.25839,251.023192 C583.291002,251.023192 578.453479,246.185669 578.453479,240.218281 L578.453479,231.159618 L578.453479,231.159618 Z" id="Path" fill="#8B77E8" fill-rule="nonzero"></path>
                <path d="M584.037108,250.171896 C580.332073,248.235385 578.011655,244.398871 578.016908,240.218281 L578.016908,236.887312 L578.890041,236.887312 L578.890041,240.218281 C578.889558,244.069827 581.029391,247.60257 584.443111,249.386085 L584.037108,250.171896 Z" id="Path" fill="#40327A" fill-rule="nonzero"></path>
                <rect id="Rectangle" fill="#FFFFFF" fill-rule="nonzero" x="578.453479" y="233.997271" width="31.4324693" height="1"></rect>
                <rect id="Rectangle" fill="#40327A" fill-rule="nonzero" x="589.865211" y="230.723056" width="20.0207367" height="1"></rect>
                <rect id="Rectangle" fill="#5464B3" fill-rule="nonzero" x="592.183356" y="251.018827" width="23.3560709" height="1"></rect>
                <path d="M362.307231,204.607913 L371.173806,241.973261 L362.307231,204.607913 Z" id="Path" fill="#DDD6FF" fill-rule="nonzero"></path>
                <rect id="Rectangle" fill="#C4B8FF" fill-rule="nonzero" transform="translate(366.743194, 223.294280) rotate(-13.350000) translate(-366.743194, -223.294280) " x="366.306632" y="204.092097" width="1" height="38.4043656"></rect>
                <path d="M325.736426,206.079127 L318.987176,229.326057 L325.736426,206.079127 Z" id="Path" fill="#DDD6FF" fill-rule="nonzero"></path>
                <rect id="Rectangle" fill="#C4B8FF" fill-rule="nonzero" transform="translate(322.341350, 217.671097) rotate(-73.810000) translate(-322.341350, -217.671097) " x="310.237666" y="217.234535" width="24.207367" height="1"></rect>
                <path d="M318.096589,232.395089 L317.166712,235.60382 L318.096589,232.395089 Z" id="Path" fill="#DDD6FF" fill-rule="nonzero"></path>
                <rect id="Rectangle" fill="#C4B8FF" fill-rule="nonzero" transform="translate(317.608983, 233.967518) rotate(-73.810000) translate(-317.608983, -233.967518) " x="315.939133" y="233.530956" width="3.33969986" height="1"></rect>
                <path d="M54.4742156,180.867667 L49.3620737,227.505593 L54.4742156,180.867667 Z" id="Path" fill="#DDD6FF" fill-rule="nonzero"></path>
                <rect id="Rectangle" fill="#061D78" fill-rule="nonzero" transform="translate(51.914288, 204.180911) rotate(-83.750000) translate(-51.914288, -204.180911) " x="28.4556246" y="203.744349" width="46.9173261" height="1"></rect>
                <path d="M48.2663029,237.489768 L47.5721692,243.907231 L48.2663029,237.489768 Z" id="Path" fill="#DDD6FF" fill-rule="nonzero"></path>
                <rect id="Rectangle" fill="#061D78" fill-rule="nonzero" transform="translate(47.917609, 240.684552) rotate(-83.750000) translate(-47.917609, -240.684552) " x="44.6870494" y="240.24799" width="6.46111869" height="1"></rect>
                <path d="M239.755525,208.240109 L240.886221,213.042292 L243.527422,196.099318 C241.838492,198.194679 239.895418,200.071762 237.742974,201.687312 L239.327694,208.371078 L239.755525,208.240109 Z" id="Path"></path>
                <path d="M247.225102,153.591269 L244.025102,156.31105 C239.112567,149.655757 231.834245,145.138447 223.690041,143.690041 C219.923685,143.011936 216.066493,143.011936 212.300136,143.690041 C207.510688,144.553687 202.980086,146.494307 199.050477,149.365348 L202.106412,138.783083 L202.106412,138.783083 C202.175032,138.545392 202.258134,138.312123 202.355252,138.084584 C203.138339,136.293916 204.787692,135.03216 206.720873,134.744884 C206.988129,134.703386 207.258063,134.6815 207.528513,134.679399 L228.483492,134.679399 C230.152054,134.678402 231.735702,135.415094 232.809823,136.691951 L232.809823,136.691951 L237.345703,142.018008 L247.225102,153.591269 Z" id="Path" fill="#CCC2FF" fill-rule="nonzero"></path>
                <polygon id="Path" fill="#40327A" fill-rule="nonzero" points="278.439291 164.461664 294.002729 164.461664 294.007094 164.457299 278.439291 164.457299"></polygon>
                <path d="M253.367531,137.172169 L252.319782,159.249113 L267.385539,162.139154 L294.290859,157.948158 L294.290859,157.948158 L295.260027,137.176535 L253.367531,137.172169 Z M268.944065,141.485402 L272.401637,141.485402 L272.401637,142.358527 L268.961528,142.358527 L268.944065,141.485402 Z M258.121692,144.17899 L285.625102,144.17899 L285.625102,145.052115 L258.121692,145.052115 L258.121692,144.17899 Z M281.311869,150.434925 L277.819372,150.434925 L277.819372,149.561801 L281.311869,149.561801 L281.311869,150.434925 Z M288.152797,150.434925 L283.424829,150.434925 L283.424829,149.561801 L288.152797,149.561801 L288.152797,150.434925 Z M288.152797,147.741337 L275.894134,147.741337 L275.894134,146.868213 L288.157162,146.868213 L288.152797,147.741337 Z M288.152797,142.358527 L280.024011,142.358527 L280.024011,141.485402 L288.152797,141.485402 L288.152797,142.358527 Z" id="Shape" fill="#40327A" fill-rule="nonzero"></path>
                <path d="M249.220191,167.041746 C249.222236,167.054763 249.222236,167.06802 249.220191,167.081037 L249.770259,167.081037 C249.586213,167.08074 249.402411,167.067611 249.220191,167.041746 Z" id="Path" fill="#DDD6FF" fill-rule="nonzero"></path>
                <path d="M276.418008,166.88895 C276.099343,167.000032 275.764479,167.057563 275.427012,167.059209 L275.427012,167.059209 L270.188267,167.081037 L293.884857,167.081037 L294.007094,164.461664 L278.439291,164.461664 C278.268334,165.583235 277.490102,166.517786 276.418008,166.88895 L276.418008,166.88895 Z" id="Path" fill="#DDD6FF" fill-rule="nonzero"></path>
                <polygon id="Path" fill="#DDD6FF" fill-rule="nonzero" points="270.188267 167.072306 270.183902 167.072306 270.179536 167.081037 249.77899 167.081037 270.188267 167.081037"></polygon>
                <path d="M270.018008,162.641201 L274.414188,161.117599 C275.180088,160.851658 276.020277,160.90097 276.749807,161.254682 C277.479338,161.608394 278.03841,162.237511 278.303956,163.003547 C278.464682,163.470334 278.511092,163.968865 278.439291,164.457299 L294.002729,164.457299 L294.186085,160.497681 L294.308322,157.948158 L267.403001,162.139154 L270.018008,162.641201 Z" id="Path" fill="#7760DB" fill-rule="nonzero"></path>
                <rect id="Rectangle" fill="#FFFFFF" fill-rule="nonzero" x="268.944065" y="141.485402" width="3.44010914" height="1"></rect>
                <rect id="Rectangle" fill="#FFFFFF" fill-rule="nonzero" x="258.121692" y="144.17899" width="27.4859482" height="1"></rect>
                <rect id="Rectangle" fill="#FFFFFF" fill-rule="nonzero" x="275.889768" y="146.868213" width="12.2630286" height="1"></rect>
                <rect id="Rectangle" fill="#FFFFFF" fill-rule="nonzero" x="277.819372" y="149.561801" width="3.49249659" height="1"></rect>
                <rect id="Rectangle" fill="#FFFFFF" fill-rule="nonzero" x="283.424829" y="149.561801" width="4.72796726" height="1"></rect>
                <rect id="Rectangle" fill="#FFFFFF" fill-rule="nonzero" x="280.024011" y="141.485402" width="8.12878581" height="1"></rect>
                <path d="M278.439291,164.457299 L278.439291,164.457299 C278.268334,165.578869 277.490102,166.513421 276.418008,166.884584 C276.098915,166.994001 275.764327,167.051485 275.427012,167.054843 L270.188267,167.076671 L270.188267,167.076671 L270.188267,167.076671 L270.188267,167.076671 L249.77899,167.076671 C249.592133,167.07823 249.4054,167.066559 249.220191,167.041746 C248.173746,163.17183 246.411665,159.532171 244.025102,156.31105 L247.220737,153.591269 L251.974898,159.179263 L252.332879,159.249113 L267.398636,162.139154 L270.018008,162.641201 L274.414188,161.117599 C275.180088,160.851658 276.020277,160.90097 276.749807,161.254682 C277.479338,161.608394 278.03841,162.237511 278.303956,163.003547 C278.464682,163.470334 278.511092,163.968865 278.439291,164.457299 Z" id="Path" fill="#FF95A9" fill-rule="nonzero"></path>
                <path d="M223.663847,128.593724 L223.070123,128.593724 L223.070123,134.6794 L213.465757,134.6794 L213.465757,127.476126 C215.336216,128.204197 217.325988,128.577279 219.333151,128.576262 L220.45075,128.576262 L223.070123,120.809823 L230.491678,117.378445 L230.723056,121.080491 C230.843473,123.028736 230.153823,124.940201 228.817228,126.36276 C227.480634,127.785319 225.61581,128.592626 223.663847,128.593724 L223.663847,128.593724 Z" id="Path" fill="#FF95A9" fill-rule="nonzero"></path>
                <path d="M219.341883,128.593724 L220.45075,128.593724 L223.070123,120.809823 L230.491678,117.378445 L236.215007,114.759072 L236.215007,113.069577 C236.215007,108.59379 234.436709,104.301383 231.27144,101.136933 C228.106171,97.9724827 223.813304,96.1952949 219.337517,96.1964459 C215.267738,96.1926661 211.346518,97.7252937 208.357981,100.487858 C206.516777,97.5461942 202.842457,96.3316687 199.61081,97.596531 C196.379164,98.8613933 194.505485,102.247398 195.150288,105.657332 C195.795092,109.067265 198.77575,111.535336 202.246112,111.532879 C202.554257,111.53108 202.861957,111.509205 203.167258,111.467394 C203.167258,111.772988 203.136698,112.082947 203.136698,112.397271 C203.136698,121.344737 210.390052,128.59809 219.337517,128.59809 L219.341883,128.593724 Z" id="Path" fill="#2F2F2F" fill-rule="nonzero"></path>
                <path d="M207.545975,134.6794 C207.275525,134.6815 207.005591,134.703386 206.738336,134.744884 C206.955615,134.702997 207.176271,134.681078 207.397544,134.6794 L207.545975,134.6794 Z" id="Path" fill="#FF809F" fill-rule="nonzero"></path>
                <path d="M254.096589,192.144065 C254.177221,191.791757 254.218221,191.43154 254.218827,191.070123 C254.217968,188.565098 252.341371,186.457679 249.853206,186.167531 L249.538881,191.436835 L254.096589,192.144065 Z" id="Path" fill="#061D78" fill-rule="nonzero"></path>
                <path d="M235.643111,246.657572 L235.643111,246.657572 C235.619014,246.801892 235.60588,246.94783 235.60382,247.094134 L241.279127,247.094134 L241.340246,247.129059 L243.466303,237.99618 L239.253479,223.480491 L235.643111,246.657572 Z" id="Path" fill="#061D78" fill-rule="nonzero"></path>
                <path d="M227.566712,206.825648 L221.358799,246.657572 L221.358799,246.657572 C221.336149,246.802001 221.324474,246.94794 221.323874,247.094134 L226.999181,247.094134 L227.0603,247.129059 L235.538336,210.67176 L233.682947,204.276126 C231.736448,205.332252 229.687041,206.186537 227.566712,206.825648 L227.566712,206.825648 Z" id="Path" fill="#061D78" fill-rule="nonzero"></path>
                <path d="M243.527422,196.07749 L240.886221,213.042292 L245.125239,230.902046 L254.13588,192.174625 L254.096589,192.174625 L249.547613,191.467394 L249.861937,186.19809 L249.861937,186.19809 L249.032469,186.102046 C247.798293,189.725027 245.934726,193.101911 243.527422,196.07749 Z" id="Path" fill="#061D78" fill-rule="nonzero"></path>
                <path d="M238.904229,208.449659 L239.340791,208.34925 L237.756071,201.665484 C236.470473,202.639391 235.113285,203.514996 233.696044,204.284857 L235.551432,210.680491 L239.270941,223.489222 L243.483765,238.004911 L247.251296,251.023192 L249.455935,251.023192 L247.849386,244.25648 L247.412824,244.356889 L238.904229,208.449659 Z" id="Path" fill="#E9E6FF" fill-rule="nonzero"></path>
                <path d="M186.621555,251.023192 L188.804366,251.023192 L190.768895,244.25648 L190.332333,244.134243 L193.54543,233.058663 L193.981992,233.1809 L195.802456,226.903138 L195.365894,226.7809 L196.53588,222.751432 L196.972442,222.87367 L202.37708,204.258663 C200.961172,203.486557 199.604148,202.611057 198.317053,201.639291 L186.621555,251.023192 Z" id="Path" fill="#E9E6FF" fill-rule="nonzero"></path>
                <path d="M249.228922,167.081037 C249.230967,167.06802 249.230967,167.054763 249.228922,167.041746 C245.956348,154.973959 236.013822,145.878256 223.703138,143.690041 C219.936781,143.011936 216.07959,143.011936 212.313233,143.690041 C207.523785,144.553687 202.993183,146.494307 199.063574,149.365348 C195.009829,152.314288 191.694101,156.161968 189.376262,160.606821 C186.976457,165.203322 185.7257,170.3127 185.730952,175.497954 C185.730952,177.105324 185.851217,178.710443 186.08895,180.300136 L186.525512,180.239018 C186.793921,182.036598 187.214532,183.808132 187.78281,185.534516 L187.376808,185.665484 C187.996116,187.543551 188.788228,189.360149 189.742974,191.091951 L190.118417,190.882401 C196.632876,202.737237 209.921387,209.18803 223.265713,206.973469 C236.610039,204.758908 247.102509,194.361536 249.438472,181.037926 L249.875034,181.107776 C250.197566,179.262528 250.361149,177.393004 250.363984,175.519782 C250.360945,172.669017 249.979253,169.831286 249.228922,167.081037 Z" id="Shape" fill="#6B92F7" fill-rule="nonzero"></path>
                <path d="M223.275307,155.158527 L212.797817,155.158527 C211.592284,155.158527 210.615007,154.181249 210.615007,152.975716 C210.615007,151.770183 211.592284,150.792906 212.797817,150.792906 L223.275307,150.792906 C224.48084,150.792906 225.458117,151.770183 225.458117,152.975716 C225.458117,154.181249 224.48084,155.158527 223.275307,155.158527 Z" id="Path" fill="#1D3E8F" fill-rule="nonzero" opacity="0.25"></path>
                <path d="M186.51678,180.212824 L186.080218,180.273943 L185.643656,180.339427 C185.924215,182.186662 186.362377,184.006492 186.953342,185.77899 L187.389905,185.639291 L187.795907,185.508322 C187.219739,183.782737 186.791812,182.011149 186.51678,180.212824 L186.51678,180.212824 Z" id="Path" fill="#577DDD" fill-rule="nonzero" opacity="0.2" style="mix-blend-mode: overlay;"></path>
                <path d="M241.283492,247.094134 L235.608186,247.094134 L235.608186,251.023231 L243.562347,251.023231 C244.115465,251.027558 244.60156,250.657373 244.744402,250.123 C244.887245,249.588626 244.650691,249.025271 244.169168,248.75307 L241.344611,247.129059 L241.283492,247.094134 Z" id="Path" fill="#7760DB" fill-rule="nonzero"></path>
                <path d="M226.999181,247.094134 L221.323874,247.094134 L221.323874,251.023231 L229.27367,251.023231 C229.826788,251.027558 230.312884,250.657373 230.455726,250.123 C230.598568,249.588626 230.362015,249.025271 229.880491,248.75307 L227.0603,247.129059 L226.999181,247.094134 Z" id="Path" fill="#7760DB" fill-rule="nonzero"></path>
                <polygon id="Path" fill="#C4B8FF" fill-rule="nonzero" points="239.755525 208.24884 239.327694 208.34925 238.904229 208.449659 247.425921 244.352524 247.849386 244.252115 248.272851 244.151705 245.125239 230.880218 240.886221 213.020464"></polygon>
                <polygon id="Path" fill="#C4B8FF" fill-rule="nonzero" points="190.371623 244.134243 190.790723 244.252115 191.209823 244.374352 194.42292 233.298772 194.00382 233.176535 193.58472 233.054297"></polygon>
                <polygon id="Path" fill="#C4B8FF" fill-rule="nonzero" points="195.405184 226.776535 195.824284 226.898772 196.243383 227.02101 197.41337 222.991542 196.99427 222.869304 196.575171 222.747067"></polygon>
                <path d="M218.036562,207.366985 C206.411513,207.366098 195.707091,201.042126 190.096589,190.860573 L189.721146,191.070123 L189.332606,191.284038 C196.804888,204.839767 212.740814,211.32153 227.553615,206.830014 C229.672615,206.189227 231.720551,205.333482 233.665484,204.276126 C235.082725,203.506265 236.439913,202.63066 237.725512,201.656753 C244.35924,196.65657 248.84437,189.321806 250.272306,181.138336 L249.835744,181.059754 L249.399181,180.989905 C246.762788,196.246281 233.519045,207.384741 218.036562,207.366985 Z" id="Path" fill="#577DDD" fill-rule="nonzero" opacity="0.2" style="mix-blend-mode: overlay;"></path>
            </g>
        </g>
    </g>
</svg>